<svg aria-label="EarlBear mark" color="#B14726" width="120" height="120" viewBox="0 0 120 120" xmlns="http://www.w3.org/2000/svg"><defs><clipPath id="g25l7uh-lensL"><rect x="30" y="52" width="28" height="20" rx="8"></rect></clipPath><clipPath id="g25l7uh-lensR"><rect x="62" y="52" width="28" height="20" rx="8"></rect></clipPath><clipPath id="g25l7uh-head"><circle cx="60" cy="62" r="48"></circle></clipPath><radialGradient id="g25l7uh-glowL" cx="32%" cy="25%" r="95%"><stop offset="0%" stop-color="#FFFFFF"></stop><stop offset="35%" stop-color="#FFFBF3"></stop><stop offset="75%" stop-color="#FBF4EB"></stop><stop offset="100%" stop-color="#E2D4BB"></stop></radialGradient><radialGradient id="g25l7uh-glowR" cx="32%" cy="25%" r="95%"><stop offset="0%" stop-color="#FFFFFF"></stop><stop offset="35%" stop-color="#FFFBF3"></stop><stop offset="75%" stop-color="#FBF4EB"></stop><stop offset="100%" stop-color="#E2D4BB"></stop></radialGradient></defs><circle cx="30" cy="24" r="13" fill="currentColor"></circle><circle cx="90" cy="24" r="13" fill="currentColor"></circle><circle cx="30" cy="26" r="6" fill="#F7EFE2" opacity="0.28"></circle><circle cx="90" cy="26" r="6" fill="#F7EFE2" opacity="0.28"></circle><circle cx="60" cy="62" r="48" fill="currentColor"></circle><g clip-path="url(#g25l7uh-head)"><ellipse cx="60" cy="80" rx="22" ry="17" fill="#F7EFE2" opacity="0.92"></ellipse></g><path d="M 55.5 72 Q 60 69.5, 64.5 72 Q 63 76.5, 60 77 Q 57 76.5, 55.5 72 Z" fill="currentColor"></path><path d="M 54.5 80 Q 60 83, 64.5 81.5" fill="none" stroke="currentColor" stroke-width="1.7" stroke-linecap="round" opacity="0.9"></path><path d="M 35 47.5 Q 43 42, 53 43" fill="none" stroke="#F7EFE2" stroke-width="3.2" stroke-linecap="round"></path><path d="M 67 45.5 Q 76 43.5, 85 45.5" fill="none" stroke="#F7EFE2" stroke-width="3.2" stroke-linecap="round"></path><rect x="26.5" y="57.6" width="3.5" height="5" rx="1.2" fill="currentColor"></rect><rect x="90" y="57.6" width="3.5" height="5" rx="1.2" fill="currentColor"></rect><path d="M 57 59 Q 60 55.5, 63 59" fill="none" stroke="currentColor" stroke-width="2.8" stroke-linecap="round"></path><rect x="30" y="52" width="28" height="20" rx="8" fill="currentColor"></rect><rect x="62" y="52" width="28" height="20" rx="8" fill="currentColor"></rect><rect x="32" y="54" width="24" height="16" rx="6.4" fill="url(#g25l7uh-glowL)"></rect><rect x="64" y="54" width="24" height="16" rx="6.4" fill="url(#g25l7uh-glowR)"></rect><g clip-path="url(#g25l7uh-lensL)"><rect x="35.50" y="62.05" width="2.93" height="4.95" rx="0.6" fill="currentColor" opacity="0.27"></rect><rect x="35.70" y="62.35" width="1.03" height="4.35" rx="0.35" fill="#FFFFFF" opacity="0.78"></rect><rect x="39.75" y="61.15" width="2.93" height="5.85" rx="0.6" fill="currentColor" opacity="0.27"></rect><rect x="39.95" y="61.45" width="1.03" height="5.25" rx="0.35" fill="#FFFFFF" opacity="0.78"></rect><rect x="44.00" y="60.25" width="2.93" height="6.75" rx="0.6" fill="currentColor" opacity="0.27"></rect><rect x="44.20" y="60.55" width="1.03" height="6.15" rx="0.35" fill="#FFFFFF" opacity="0.78"></rect><rect x="48.25" y="59.35" width="2.93" height="7.65" rx="0.6" fill="currentColor" opacity="0.27"></rect><rect x="48.45" y="59.65" width="1.03" height="7.05" rx="0.35" fill="#FFFFFF" opacity="0.78"></rect></g><g clip-path="url(#g25l7uh-lensR)"><rect x="67.50" y="62.05" width="2.93" height="4.95" rx="0.6" fill="currentColor" opacity="0.27"></rect><rect x="67.70" y="62.35" width="1.03" height="4.35" rx="0.35" fill="#FFFFFF" opacity="0.78"></rect><rect x="71.75" y="61.15" width="2.93" height="5.85" rx="0.6" fill="currentColor" opacity="0.27"></rect><rect x="71.95" y="61.45" width="1.03" height="5.25" rx="0.35" fill="#FFFFFF" opacity="0.78"></rect><rect x="76.00" y="60.25" width="2.93" height="6.75" rx="0.6" fill="currentColor" opacity="0.27"></rect><rect x="76.20" y="60.55" width="1.03" height="6.15" rx="0.35" fill="#FFFFFF" opacity="0.78"></rect><rect x="80.25" y="59.35" width="2.93" height="7.65" rx="0.6" fill="currentColor" opacity="0.27"></rect><rect x="80.45" y="59.65" width="1.03" height="7.05" rx="0.35" fill="#FFFFFF" opacity="0.78"></rect></g></svg>
