<svg xmlns="http://www.w3.org/2000/svg" width="520" height="360" viewBox="0 0 520 360" fill="none" aria-label="Earl inspecting a rising growth chart">
  
  <g stroke="currentColor" fill="none" stroke-linecap="round" stroke-linejoin="round">

    
    <g transform="translate(270, 36)">
      
      <rect x="0" y="0" width="220" height="150" rx="10" stroke-width="2" fill="white"></rect>
      
      <line x1="0" y1="28" x2="220" y2="28" stroke-width="1" opacity="0.3"></line>
      
      <circle cx="14" cy="14" r="3" fill="currentColor" stroke="none"></circle>
      <text x="24" y="18" font-family="&#39;IBM Plex Mono&#39;, monospace" font-size="9" font-weight="600" fill="currentColor" stroke="none" letter-spacing="0.06em">CONVERSION · 14D</text>
      <text x="188" y="18" font-family="&#39;IBM Plex Sans&#39;, sans-serif" font-size="10" font-weight="600" fill="currentColor" stroke="none">+14.2%</text>

      
      <g stroke-width="1" opacity="0.2">
        <line x1="14" y1="50" x2="210" y2="50"></line>
        <line x1="14" y1="80" x2="210" y2="80"></line>
        <line x1="14" y1="110" x2="210" y2="110"></line>
      </g>

      
      <line x1="14" y1="110" x2="210" y2="110" stroke-width="1.4" stroke-dasharray="3 4" opacity="0.5"></line>

      
      
      <path d="M14 118 L40 112 L62 105 L84 96 L106 88" stroke-width="2.4"></path>
      
      <path d="M106 88 L128 92 L148 104" stroke-width="1.4" stroke-dasharray="2 3" opacity="0.55"></path>
      
      <path d="M148 104 L170 82 L190 60 L210 42" stroke-width="2.4"></path>

      
      <circle cx="14" cy="118" r="2" fill="currentColor" stroke="none"></circle>
      <circle cx="106" cy="88" r="2.5" fill="currentColor" stroke="none"></circle>
      <circle cx="148" cy="104" r="2.5" fill="white" stroke-width="2"></circle>
      <circle cx="210" cy="42" r="3.5" fill="currentColor" stroke="none"></circle>

      
      <g stroke-width="1.6" opacity="0.9" transform="translate(127, 96)">
        <path d="M-5 -3 L5 3 M-5 3 L5 -3"></path>
      </g>

      
      <path d="M210 42 L226 26" stroke-width="2.4"></path>
      <path d="M226 26 L218 28 M226 26 L224 34" stroke-width="2.4"></path>
    </g>

    
    <path d="M175 118 Q 220 90 268 90" stroke-width="1.2" stroke-dasharray="2 4" opacity="0.4"></path>

    
    
    <path d="M64 208 C64 186 80 172 110 172 L168 172 C198 172 214 186 214 208 L214 300 C214 314 204 320 192 320 L86 320 C74 320 64 314 64 300 Z" stroke-width="2.2" fill="white"></path>
    
    <path d="M100 200 C100 188 118 182 138 182 C158 182 178 188 178 200 L178 280 C178 296 164 302 138 302 C112 302 100 296 100 280 Z" stroke-width="1.3" stroke-dasharray="3 5" opacity="0.4"></path>

    
    <ellipse cx="139" cy="120" rx="76" ry="68" stroke-width="2.2" fill="white"></ellipse>

    
    <circle cx="76" cy="72" r="22" stroke-width="2.2" fill="white"></circle>
    <circle cx="202" cy="72" r="22" stroke-width="2.2" fill="white"></circle>
    <circle cx="76" cy="74" r="12" fill="currentColor" fill-opacity="0.12" stroke="none"></circle>
    <circle cx="202" cy="74" r="12" fill="currentColor" fill-opacity="0.12" stroke="none"></circle>

    
    <ellipse cx="139" cy="138" rx="30" ry="22" stroke-width="2" fill="white"></ellipse>
    <ellipse cx="139" cy="130" rx="9" ry="6" fill="currentColor" stroke="none"></ellipse>
    
    <path d="M127 146 C131 152 135 154 139 154 C143 154 147 152 151 146" stroke-width="1.8"></path>

    
    
    <line x1="116" y1="102" x2="162" y2="102" stroke-width="3.2"></line>
    
    <rect x="62" y="82" width="54" height="46" rx="5" stroke-width="3.2" fill="white"></rect>
    
    <rect x="162" y="82" width="54" height="46" rx="5" stroke-width="3.2" fill="white"></rect>
    
    <path d="M62 96 L48 90" stroke-width="3"></path>
    <path d="M216 96 L230 90" stroke-width="3"></path>

    
    <g stroke-width="3" stroke-linecap="butt" transform="translate(72, 120)">
      <line x1="0" y1="0" x2="0" y2="-10"></line>
      <line x1="10" y1="0" x2="10" y2="-18"></line>
      <line x1="20" y1="0" x2="20" y2="-26"></line>
      <line x1="30" y1="0" x2="30" y2="-34"></line>
    </g>
    
    <line x1="68" y1="122" x2="108" y2="122" stroke-width="1.2" opacity="0.4"></line>

    
    <circle cx="195" cy="98" r="3.6" fill="currentColor" stroke="none"></circle>

    
    
    <path d="M70 226 C56 240 50 260 58 282" stroke-width="2.2"></path>
    <circle cx="56" cy="284" r="10" stroke-width="2"></circle>

    
    <path d="M210 212 C230 204 250 200 264 190" stroke-width="2.2"></path>
    <circle cx="264" cy="188" r="9" stroke-width="2"></circle>

    
    <g transform="translate(32, 244)">
      <rect x="0" y="0" width="52" height="64" rx="3" stroke-width="2" fill="white"></rect>
      <rect x="16" y="-6" width="20" height="10" rx="2" stroke-width="1.8" fill="white"></rect>
      <line x1="8" y1="14" x2="44" y2="14" stroke-width="1.2" opacity="0.5"></line>
      <line x1="8" y1="22" x2="38" y2="22" stroke-width="1.2" opacity="0.5"></line>
      <line x1="8" y1="30" x2="44" y2="30" stroke-width="1.2" opacity="0.5"></line>
      <line x1="8" y1="38" x2="32" y2="38" stroke-width="1.2" opacity="0.5"></line>
      
      <path d="M8 48 l3 3 l6 -6" stroke-width="1.6"></path>
      <path d="M22 48 l3 3 l6 -6" stroke-width="1.6"></path>
    </g>

    
    <ellipse cx="102" cy="322" rx="22" ry="8" stroke-width="2" fill="white"></ellipse>
    <ellipse cx="176" cy="322" rx="22" ry="8" stroke-width="2" fill="white"></ellipse>

    
    <g opacity="0.7">
      <g stroke-width="1.8" transform="translate(260, 220)">
        <path d="M0 -6 L0 6 M-6 0 L6 0"></path>
      </g>
      <g stroke-width="1.4" transform="translate(240, 60)">
        <path d="M0 -4 L0 4 M-4 0 L4 0"></path>
      </g>
      <g stroke-width="1.4" transform="translate(500, 200)">
        <path d="M0 -5 L0 5 M-5 0 L5 0"></path>
      </g>
    </g>
    <g fill="currentColor" stroke="none" opacity="0.35">
      <circle cx="248" cy="150" r="2"></circle>
      <circle cx="496" cy="240" r="2.2"></circle>
      <circle cx="30" cy="160" r="1.8"></circle>
    </g>
  </g>
</svg>